<svg width="32" height="32" viewBox="0 0 32 32" fill="none" xmlns="http://www.w3.org/2000/svg">
  <defs>
    <linearGradient id="g" x1="2" y1="2" x2="30" y2="30" gradientUnits="userSpaceOnUse">
      <stop stop-color="#D6453D"/>
      <stop offset="0.55" stop-color="#FF6A3D"/>
      <stop offset="1" stop-color="#7C3AED"/>
    </linearGradient>
  </defs>
  <rect width="32" height="32" rx="8" fill="#0A0A0A"/>
  <path d="M9.25 23.25c0-5.05 4.02-9.15 8.97-9.15 3.72 0 6.78 2.1 8.28 5.12.1.2-.05.43-.27.43h-2.42c-.13 0-.24-.07-.3-.18-1.07-1.95-3.09-3.27-5.3-3.27-3.33 0-6.03 2.76-6.03 6.15 0 .22-.18.4-.4.4H9.65c-.22 0-.4-.18-.4-.4Z" fill="url(#g)"/>
  <path d="M8.2 12.3c0-.2.16-.36.36-.36h2.47c.15 0 .28.1.33.24.65 1.95 2.48 3.35 4.64 3.35 2.35 0 4.34-1.66 4.84-3.9.04-.16.18-.27.34-.27h2.46c.22 0 .38.2.34.41-.75 4.11-4.28 7.23-8.98 7.23-3.95 0-7.42-2.3-8.66-5.63-.07-.18.07-.37.26-.37h.88c.2 0 .36-.16.36-.36Z" fill="url(#g)"/>
  <circle cx="10.2" cy="10.1" r="1.1" fill="#F9F9F8"/>
</svg>
